<svg width="76" height="76" viewBox="0 0 76 76" fill="none" xmlns="http://www.w3.org/2000/svg">
<path d="M38 47L38 63" stroke="#FFD43B" stroke-width="2"/>
<path d="M31.098 39.5729L30.9902 39.9045H30.8824L30.7745 39.5729L29.3725 35.7035H27L30.1275 43H31.7451L34.8725 35.7035H32.6078L31.098 39.5729ZM45.1176 21H41.8824V28.2965H45.1176C47.4902 28.2965 49 26.8593 49 24.5377C49 22.4372 47.4902 21 45.1176 21ZM44.902 26.3065H43.9314V22.9899H44.902C46.6274 22.9899 46.7353 24.206 46.7353 24.5377C46.8431 25.8643 45.8725 26.3065 44.902 26.3065ZM34.6569 24.6482C34.6569 22.4372 33.1471 21.1106 30.7745 21.1106H27.5392V28.407H30.7745C33.1471 28.2965 34.6569 26.8593 34.6569 24.6482ZM29.6961 26.3065V22.9899H30.6667C32.3922 22.9899 32.5 24.206 32.5 24.5377C32.5 25.7538 31.5294 26.196 30.6667 26.196H29.6961V26.3065ZM47.4902 38.6884C47.598 38.5779 47.9216 38.1357 47.9216 37.5829C47.9216 36.5879 47.2745 35.7035 45.549 35.7035H41.8824V43H45.7647C47.0588 43 48.4608 42.3367 48.4608 40.4573C48.4608 39.5729 48.1373 39.0201 47.4902 38.6884ZM43.8235 37.3618C43.8235 37.3618 45.1176 37.3618 45.3333 37.3618C45.7647 37.3618 45.9804 37.5829 45.9804 37.9146C45.9804 38.1357 45.8725 38.4673 45.3333 38.4673C45.2255 38.4673 43.8235 38.4673 43.8235 38.4673V37.3618ZM45.549 41.3417C45.3333 41.3417 43.8235 41.3417 43.8235 41.3417V39.794C43.8235 39.794 45.3333 39.794 45.549 39.794C46.0882 39.794 46.4118 40.1256 46.4118 40.5678C46.5196 41.01 46.0882 41.3417 45.549 41.3417Z" fill="black"/>
<g clip-path="url(#clip0_1802_37088)">
<rect x="21" y="14" width="34" height="34" fill="#FFD747"/>
<path d="M51.5064 15.6543H24.5821C23.4794 15.6543 22.6523 16.4813 22.6523 17.584V44.5084C22.6523 45.6111 23.4794 46.4381 24.5821 46.4381H51.5064C52.6091 46.4381 53.4361 45.6111 53.4361 44.5084V17.584C53.4361 16.4813 52.5172 15.6543 51.5064 15.6543Z" fill="#FFD747"/>
<path d="M32.1208 37.4325L32.0289 37.7081H31.937L31.8451 37.4325L30.6505 34.2163H28.6289L31.2938 40.2811H32.6721L35.337 34.2163H33.4073L32.1208 37.4325ZM44.0667 21.9946H41.31V28.0595H44.0667C46.0884 28.0595 47.3749 26.8649 47.3749 24.9352C47.3749 23.1892 46.0884 21.9946 44.0667 21.9946ZM43.883 26.4054H43.0559V23.6487H43.883C45.3532 23.6487 45.4451 24.6595 45.4451 24.9352C45.537 26.0379 44.71 26.4054 43.883 26.4054ZM35.1532 25.0271C35.1532 23.1892 33.8667 22.0865 31.8451 22.0865H29.0884V28.1514H31.8451C33.8667 28.0595 35.1532 26.8649 35.1532 25.0271ZM30.9262 26.4054V23.6487H31.7532C33.2235 23.6487 33.3154 24.6595 33.3154 24.9352C33.3154 25.946 32.4884 26.3135 31.7532 26.3135H30.9262V26.4054ZM46.0884 36.6973C46.1803 36.6054 46.4559 36.2379 46.4559 35.7784C46.4559 34.9514 45.9046 34.2163 44.4343 34.2163H41.31V40.2811H44.6181C45.7208 40.2811 46.9154 39.7298 46.9154 38.1676C46.9154 37.4325 46.6397 36.973 46.0884 36.6973ZM42.964 35.5946C42.964 35.5946 44.0667 35.5946 44.2505 35.5946C44.6181 35.5946 44.8019 35.7784 44.8019 36.0541C44.8019 36.2379 44.71 36.5135 44.2505 36.5135C44.1586 36.5135 42.964 36.5135 42.964 36.5135V35.5946ZM44.4343 38.9027C44.2505 38.9027 42.964 38.9027 42.964 38.9027V37.6163C42.964 37.6163 44.2505 37.6163 44.4343 37.6163C44.8938 37.6163 45.1694 37.8919 45.1694 38.2595C45.2613 38.6271 44.8938 38.9027 44.4343 38.9027Z" fill="black"/>
<path d="M51.5081 14H24.5838C22.5622 14 21 15.5622 21 17.5838V44.5081C21 46.4378 22.5622 48 24.5838 48H51.5081C53.4378 48 55.0919 46.4378 55.0919 44.4162V17.5838C55 15.5622 53.4378 14 51.5081 14ZM53.4378 44.5081C53.4378 45.6108 52.6108 46.4378 51.5081 46.4378H24.5838C23.4811 46.4378 22.6541 45.6108 22.6541 44.5081V17.5838C22.6541 16.573 23.4811 15.6541 24.5838 15.6541H51.5081C52.6108 15.6541 53.4378 16.4811 53.4378 17.5838V44.5081Z" fill="#FFD747"/>
</g>
<defs>
<clipPath id="clip0_1802_37088">
<rect width="34" height="34" fill="white" transform="translate(21 14)"/>
</clipPath>
</defs>
</svg>
