<svg width="32" height="32" viewBox="0 0 32 32" fill="none" xmlns="http://www.w3.org/2000/svg">
<path d="M22.0007 17.3332C20.4007 17.3332 17.9073 17.7865 16.0007 18.6665C14.094 17.7732 11.6007 17.3332 10.0007 17.3332C7.10732 17.3332 1.33398 18.7732 1.33398 21.6665V25.3332H30.6673V21.6665C30.6673 18.7732 24.894 17.3332 22.0007 17.3332ZM16.6673 23.3332H3.33398V21.6665C3.33398 20.9465 6.74732 19.3332 10.0007 19.3332C13.254 19.3332 16.6673 20.9465 16.6673 21.6665V23.3332ZM28.6673 23.3332H18.6673V21.6665C18.6673 21.0532 18.4007 20.5198 17.974 20.0398C19.1473 19.6398 20.5873 19.3332 22.0007 19.3332C25.254 19.3332 28.6673 20.9465 28.6673 21.6665V23.3332ZM10.0007 15.9998C12.574 15.9998 14.6673 13.9065 14.6673 11.3332C14.6673 8.75984 12.574 6.6665 10.0007 6.6665C7.42732 6.6665 5.33398 8.75984 5.33398 11.3332C5.33398 13.9065 7.42732 15.9998 10.0007 15.9998ZM10.0007 8.6665C11.4673 8.6665 12.6673 9.8665 12.6673 11.3332C12.6673 12.7998 11.4673 13.9998 10.0007 13.9998C8.53398 13.9998 7.33398 12.7998 7.33398 11.3332C7.33398 9.8665 8.53398 8.6665 10.0007 8.6665ZM22.0007 15.9998C24.574 15.9998 26.6673 13.9065 26.6673 11.3332C26.6673 8.75984 24.574 6.6665 22.0007 6.6665C19.4273 6.6665 17.334 8.75984 17.334 11.3332C17.334 13.9065 19.4273 15.9998 22.0007 15.9998ZM22.0007 8.6665C23.4673 8.6665 24.6673 9.8665 24.6673 11.3332C24.6673 12.7998 23.4673 13.9998 22.0007 13.9998C20.534 13.9998 19.334 12.7998 19.334 11.3332C19.334 9.8665 20.534 8.6665 22.0007 8.6665Z" fill="#EFB317"/>
</svg>
