<svg width="32" height="32" viewBox="0 0 32 32" fill="none" xmlns="http://www.w3.org/2000/svg">
<path d="M28.063 11.578C29.6481 9.99294 28.9253 8.14155 28.063 7.24121L24.2588 3.43699C22.661 1.85189 20.8223 2.57469 19.922 3.43699L17.7662 5.6054H14.4819C12.0726 5.6054 10.6777 6.87347 9.96758 8.33176L4.33732 13.962V19.0343L3.43699 19.922C1.85189 21.5197 2.57469 23.3585 3.43699 24.2588L7.24121 28.063C7.92597 28.7478 8.66146 29.0014 9.3589 29.0014C10.2592 29.0014 11.0835 28.5576 11.578 28.063L15.0018 24.6265H19.5542C21.71 24.6265 22.8005 23.2824 23.1936 21.9636C24.6265 21.5831 25.4127 20.4926 25.7298 19.4274C27.6953 18.9202 28.4308 17.0561 28.4308 15.75V11.9458H27.6826L28.063 11.578ZM25.8946 15.75C25.8946 16.3206 25.6537 17.0181 24.6265 17.0181H23.3585V18.2862C23.3585 18.8568 23.1175 19.5542 22.0904 19.5542H20.8223V20.8223C20.8223 21.3929 20.5814 22.0904 19.5542 22.0904H13.962L9.80273 26.2497C9.40962 26.6174 9.18137 26.4018 9.04188 26.2624L5.25033 22.4835C4.88259 22.0904 5.09816 21.8621 5.23765 21.7226L6.87347 20.0741V15.0018L9.40962 12.4657V14.4819C9.40962 16.0163 10.4241 18.2862 13.2139 18.2862C16.0036 18.2862 17.0181 16.0163 17.0181 14.4819H25.8946V15.75ZM26.2624 9.77736L24.1066 11.9458H14.4819V14.4819C14.4819 15.0526 14.241 15.75 13.2139 15.75C12.1867 15.75 11.9458 15.0526 11.9458 14.4819V10.6777C11.9458 10.0944 12.1613 8.14155 14.4819 8.14155H18.8061L21.6973 5.25033C22.0904 4.88259 22.3186 5.09816 22.4581 5.23765L26.2497 9.01652C26.6174 9.40962 26.4018 9.63788 26.2624 9.77736Z" fill="#EFB317"/>
</svg>
