<svg width="32" height="32" viewBox="0 0 32 32" fill="none" xmlns="http://www.w3.org/2000/svg">
<path d="M15.9993 29.3332C14.2484 29.3332 12.5146 28.9883 10.8969 28.3182C9.27923 27.6482 7.80937 26.666 6.57126 25.4279C4.07077 22.9274 2.66602 19.5361 2.66602 15.9998C2.66602 12.4636 4.07077 9.07223 6.57126 6.57175C9.07174 4.07126 12.4631 2.6665 15.9993 2.6665C17.7503 2.6665 19.4841 3.01138 21.1018 3.68144C22.7195 4.35151 24.1893 5.33363 25.4274 6.57175C26.6656 7.80986 27.6477 9.27972 28.3177 10.8974C28.9878 12.5151 29.3327 14.2489 29.3327 15.9998C29.3327 19.5361 27.9279 22.9274 25.4274 25.4279C22.927 27.9284 19.5356 29.3332 15.9993 29.3332ZM15.9993 26.6665C18.8283 26.6665 21.5414 25.5427 23.5418 23.5423C25.5422 21.5419 26.666 18.8288 26.666 15.9998C26.666 13.1709 25.5422 10.4578 23.5418 8.45737C21.5414 6.45698 18.8283 5.33317 15.9993 5.33317C13.1704 5.33317 10.4573 6.45698 8.45688 8.45737C6.45649 10.4578 5.33268 13.1709 5.33268 15.9998C5.33268 18.8288 6.45649 21.5419 8.45688 23.5423C10.4573 25.5427 13.1704 26.6665 15.9993 26.6665ZM15.9993 14.6665C16.353 14.6665 16.6921 14.807 16.9422 15.057C17.1922 15.3071 17.3327 15.6462 17.3327 15.9998C17.3327 16.3535 17.1922 16.6926 16.9422 16.9426C16.6921 17.1927 16.353 17.3332 15.9993 17.3332C15.6457 17.3332 15.3066 17.1927 15.0565 16.9426C14.8065 16.6926 14.666 16.3535 14.666 15.9998C14.666 15.6462 14.8065 15.3071 15.0565 15.057C15.3066 14.807 15.6457 14.6665 15.9993 14.6665ZM15.9993 10.6665C19.506 10.6665 22.666 12.7598 23.9993 15.9998C22.1593 20.4132 17.0793 22.5065 12.666 20.6665C10.5593 19.7865 8.87935 18.1065 7.99935 15.9998C9.33268 12.7598 12.4927 10.6665 15.9993 10.6665ZM15.9993 12.6665C15.1153 12.6665 14.2674 13.0177 13.6423 13.6428C13.0172 14.2679 12.666 15.1158 12.666 15.9998C12.666 16.8839 13.0172 17.7317 13.6423 18.3569C14.2674 18.982 15.1153 19.3332 15.9993 19.3332C16.8834 19.3332 17.7313 18.982 18.3564 18.3569C18.9815 17.7317 19.3327 16.8839 19.3327 15.9998C19.3327 15.1158 18.9815 14.2679 18.3564 13.6428C17.7313 13.0177 16.8834 12.6665 15.9993 12.6665Z" fill="#EFB317"/>
</svg>
