<svg width="24" height="24" viewBox="0 0 24 24" fill="none" xmlns="http://www.w3.org/2000/svg">
<rect x="2.4" y="2.4" width="18.2" height="18.2" rx="2.6" stroke="#1F1D1D" stroke-width="0.8"/>
<path d="M5.4 7.4H9.25C10.2717 7.4 11.1 8.22827 11.1 9.25C11.1 10.2717 10.2717 11.1 9.25 11.1H5.4V7.4Z" stroke="#1F1D1D" stroke-width="0.8" stroke-linecap="round" stroke-linejoin="round"/>
<path d="M5.4 11.1046H9.35233C10.5937 11.1046 11.6 12.1109 11.6 13.3523C11.6 14.5936 10.5937 15.5999 9.35233 15.5999H5.4V11.1046Z" stroke="#1F1D1D" stroke-width="0.8" stroke-linecap="round" stroke-linejoin="round"/>
<path d="M17.3634 14.1667C16.9057 14.6781 16.2404 15 15.5 15C14.1193 15 13 13.8807 13 12.5C13 11.1193 14.1193 10 15.5 10C16.8807 10 18 11.1193 18 12.5H13.4167" stroke="#1F1D1D" stroke-width="0.8"/>
<path d="M13.5 8.5H18" stroke="#1F1D1D" stroke-width="0.8" stroke-linejoin="round"/>
</svg>
