<svg width="24" height="24" viewBox="0 0 24 24" fill="none" xmlns="http://www.w3.org/2000/svg">
<path d="M12 3C7.03428 3 3 7.04073 3 12.0144C3 16.5294 6.3249 20.266 10.6553 20.9176L11.1251 20.9888V13.8855H8.99893V12.4434H11.1251V10.5283C11.1251 9.349 11.4076 8.5723 11.8754 8.08501C12.3431 7.59771 13.0342 7.35195 13.9959 7.35195C14.7649 7.35195 15.0641 7.39862 15.3486 7.43358V8.614H14.3475C13.7794 8.614 13.3134 8.93144 13.0715 9.35426C12.8296 9.77708 12.7543 10.2819 12.7543 10.7964V12.4426H15.2591L15.0362 13.8847H12.7543V21L13.2185 20.9368C17.6104 20.3402 21 16.5736 21 12.0144C21 7.04073 16.9657 3 12 3ZM12 3.81949C16.5235 3.81949 20.1818 7.48362 20.1818 12.0144C20.1818 16.0011 17.3328 19.2799 13.5724 20.0181V14.7042H15.7377L16.2132 11.6231H13.5724V10.7964C13.5724 10.3713 13.6501 9.99038 13.781 9.7616C13.9119 9.53283 14.038 9.43349 14.3475 9.43349H16.1668V6.69171L15.8121 6.6437C15.5667 6.61044 15.0065 6.53246 13.9959 6.53246C12.8901 6.53246 11.9409 6.83417 11.2857 7.51681C10.6305 8.19944 10.3069 9.21589 10.3069 10.5283V11.6239H8.18075V14.705H10.3069V19.9924C6.60695 19.2074 3.81818 15.958 3.81818 12.0144C3.81818 7.48362 7.47645 3.81949 12 3.81949Z" fill="#1F1D1D"/>
</svg>
