<svg width="25" height="24" viewBox="0 0 25 24" fill="none" xmlns="http://www.w3.org/2000/svg">
<path d="M4.12323 5.70014C6.30395 8.06114 9.38317 9.5961 12.8099 9.76936L13.468 9.80264L13.3229 9.15987C13.2606 8.88404 13.2252 8.59098 13.2252 8.29C13.2252 6.19462 14.9228 4.5 16.9952 4.5C18.1174 4.5 19.0931 4.94298 19.7869 5.69825L19.9786 5.90692L20.2561 5.8497C20.5129 5.79676 20.7666 5.73378 21.0166 5.66072C20.8198 5.83155 20.6255 6.00199 20.4705 6.15605C20.3631 6.26273 20.2567 6.37859 20.1743 6.49736C20.1013 6.60272 19.9961 6.78099 19.9961 7C19.9961 7.12699 20.0332 7.27418 20.141 7.40008C20.2435 7.51997 20.3709 7.57453 20.4676 7.59929C20.6425 7.64413 20.8236 7.61884 20.9472 7.5944C21.1266 7.55893 21.3355 7.49184 21.5506 7.41111C21.3812 7.55617 21.2058 7.69369 21.0245 7.82313L20.8014 7.98249L20.8158 8.25628C20.825 8.43109 20.8252 8.59818 20.8252 8.79C20.8252 14.2446 16.6619 20.5 9.11516 20.5C7.50065 20.5 5.96077 20.1706 4.55955 19.5762C6.30242 19.3883 7.89496 18.7153 9.19619 17.6815L10.2902 16.8122L8.89309 16.7901C7.51323 16.7682 6.32377 16.0021 5.68461 14.89C5.68479 14.89 5.68497 14.89 5.68516 14.89C5.92425 14.89 6.24214 14.8461 6.47561 14.8087C6.59762 14.7891 6.70657 14.7696 6.78503 14.755C6.82434 14.7477 6.8562 14.7415 6.87846 14.7372L6.90443 14.732L6.91155 14.7306L6.91355 14.7302L6.91416 14.7301L6.91436 14.7301L6.91443 14.73L6.81516 14.24L6.91449 14.73L8.15142 14.4793L7.07858 13.815L7.07852 13.815L7.07848 13.815L7.07838 13.8149L7.07735 13.8143L7.07149 13.8106L7.04585 13.7943C7.0228 13.7796 6.98811 13.7571 6.94345 13.7276C6.8541 13.6684 6.72513 13.5807 6.5698 13.4689C6.25825 13.2446 5.84503 12.9261 5.43399 12.5473C5.02098 12.1667 4.62277 11.7368 4.33087 11.2913C4.2249 11.1295 4.13618 10.9707 4.06602 10.8157C4.46172 10.9317 4.88339 11 5.32516 11H7.01938L5.59663 10.0801C4.57871 9.42198 3.91516 8.25985 3.91516 6.94C3.91516 6.50695 3.98832 6.08861 4.12323 5.70014ZM20.978 7.09684C20.9778 7.09687 20.9785 7.09524 20.9804 7.09187C20.979 7.09513 20.9781 7.09681 20.978 7.09684Z" stroke="#1F1D1D"/>
</svg>
