<svg width="25" height="24" viewBox="0 0 25 24" fill="none" xmlns="http://www.w3.org/2000/svg">
<rect x="3.39609" y="2.4" width="18.2" height="18.2" rx="2.6" stroke="#1F1D1D" stroke-width="0.8"/>
<g clip-path="url(#clip0_1802_38285)">
<path d="M5.03906 7.66964C5.03906 7.17634 5.32227 6.91034 5.88867 6.87165L8.07129 6.88616C8.21777 6.88616 8.31543 6.95871 8.36426 7.10379C8.58887 7.82924 8.84033 8.45554 9.11865 8.9827C9.39697 9.50986 9.76074 10.1168 10.21 10.8036C10.249 10.8906 10.3125 10.9342 10.4004 10.9342C10.4688 10.9342 10.5225 10.9003 10.5615 10.8326L10.6055 10.673L10.6201 8.16295C10.6201 7.98884 10.5786 7.87277 10.4956 7.81473C10.4126 7.7567 10.2588 7.71317 10.0342 7.68415C9.8584 7.65513 9.77051 7.54874 9.77051 7.36496C9.77051 7.32626 9.77539 7.29725 9.78516 7.2779C9.99023 6.64918 10.5762 6.33482 11.543 6.33482L12.3633 6.32031C12.7344 6.32031 13.042 6.4122 13.2861 6.59598C13.5303 6.77976 13.6523 7.06994 13.6523 7.46652V10.76C13.7207 10.8084 13.7842 10.8326 13.8428 10.8326C13.9893 10.8326 14.1162 10.7455 14.2236 10.5714C15.2979 9.08185 15.8789 8.08557 15.9668 7.58259C15.9668 7.57292 15.9766 7.54874 15.9961 7.51004C16.0645 7.36496 16.1768 7.23921 16.333 7.13281C16.4893 7.02641 16.626 6.95387 16.7432 6.91518C16.7822 6.89583 16.8262 6.88616 16.875 6.88616H19.1455L19.292 6.90067C19.4873 6.90067 19.6387 6.99256 19.7461 7.17634C19.7852 7.23438 19.812 7.29725 19.8267 7.36496C19.8413 7.43266 19.8511 7.50037 19.856 7.56808C19.8608 7.63579 19.8633 7.67448 19.8633 7.68415V7.78571C19.7949 8.18229 19.6216 8.60547 19.3433 9.05525C19.0649 9.50502 18.7109 9.99107 18.2813 10.5134C17.8516 11.0357 17.583 11.3791 17.4756 11.5435C17.3877 11.6596 17.3438 11.766 17.3438 11.8627C17.3438 11.9401 17.3828 12.0272 17.4609 12.1239L19.5996 14.7935C19.7168 14.9483 19.7754 15.1176 19.7754 15.3013C19.7754 15.5238 19.6875 15.7076 19.5117 15.8527C19.3359 15.9978 19.126 16.08 18.8818 16.0993L18.6328 16.1138H16.4063C16.3965 16.1138 16.377 16.1163 16.3477 16.1211C16.3184 16.1259 16.2988 16.1283 16.2891 16.1283C16.0742 16.1283 15.874 16.0365 15.6885 15.8527C15.6201 15.7753 15.1611 15.2046 14.3115 14.1406C14.2627 14.0729 14.1943 14.01 14.1064 13.952C14.0674 14.1068 14.0161 14.3292 13.9526 14.6194C13.8892 14.9096 13.8428 15.1176 13.8135 15.2433L13.7695 15.49C13.6719 15.8285 13.4668 16.0316 13.1543 16.0993L12.9492 16.1138H11.5137C10.7031 16.1138 9.89502 15.7463 9.08936 15.0112C8.28369 14.276 7.55859 13.3257 6.91406 12.1602C6.26953 10.9946 5.66895 9.63802 5.1123 8.0904C5.06348 7.96466 5.03906 7.8244 5.03906 7.66964ZM13.8428 11.4275C13.6377 11.4275 13.4521 11.3718 13.2861 11.2606C13.1201 11.1494 13.0371 10.997 13.0371 10.8036V7.46652C13.0371 7.27307 12.9883 7.13523 12.8906 7.05301C12.793 6.9708 12.6221 6.92969 12.3779 6.92969L11.543 6.95871C11.123 6.95871 10.8057 7.03125 10.5908 7.17634C11.0205 7.37946 11.2354 7.70833 11.2354 8.16295V10.7165C11.2158 10.9583 11.1182 11.159 10.9424 11.3186C10.7666 11.4782 10.5713 11.558 10.3564 11.558C10.0635 11.558 9.83887 11.4178 9.68262 11.1373C8.9209 9.99591 8.35449 8.91257 7.9834 7.88728L7.85156 7.51004L5.90332 7.49554C5.77637 7.49554 5.70557 7.50279 5.69092 7.5173C5.67627 7.53181 5.66895 7.57292 5.66895 7.64062C5.66895 7.72768 5.67871 7.81957 5.69824 7.91629L6.00586 8.72879C6.82617 10.8278 7.71729 12.4818 8.6792 13.6908C9.64111 14.8999 10.5859 15.5045 11.5137 15.5045H12.9785C13.0371 15.5045 13.0811 15.4875 13.1104 15.4537C13.1396 15.4198 13.1641 15.3545 13.1836 15.2578L13.2129 15.1127L13.4912 13.8359C13.5693 13.6618 13.6377 13.5458 13.6963 13.4877C13.8037 13.3813 13.9307 13.3281 14.0771 13.3281C14.3115 13.3281 14.5508 13.4684 14.7949 13.7489L16.04 15.3158C16.1182 15.4416 16.2012 15.5045 16.2891 15.5045H18.7061C18.999 15.5045 19.1455 15.4319 19.1455 15.2868C19.1455 15.2385 19.1309 15.1901 19.1016 15.1417L16.9775 12.5156C16.8115 12.3125 16.7285 12.0949 16.7285 11.8627C16.7285 11.6306 16.8066 11.4081 16.9629 11.1953C17.0898 11.0019 17.3364 10.6802 17.7026 10.2305C18.0688 9.78069 18.3887 9.35993 18.6621 8.96819C18.9355 8.57645 19.1162 8.22098 19.2041 7.90179L19.248 7.71317C19.2383 7.69382 19.2334 7.66239 19.2334 7.61886C19.2334 7.57533 19.2285 7.53906 19.2188 7.51004H16.9189C16.7725 7.56808 16.6553 7.65513 16.5674 7.77121L16.4795 8.04688C16.2354 8.71429 15.5957 9.74442 14.5605 11.1373C14.3555 11.3307 14.1162 11.4275 13.8428 11.4275Z" fill="#1F1D1D"/>
</g>
<defs>
<clipPath id="clip0_1802_38285">
<rect width="15" height="13" fill="white" transform="translate(4.99609 5)"/>
</clipPath>
</defs>
</svg>
