<svg width="25" height="25" viewBox="0 0 25 25" fill="none" xmlns="http://www.w3.org/2000/svg">
<rect x="2.4029" y="2.42491" width="18.2" height="18.2" rx="2.6" transform="rotate(-0.0660991 2.4029 2.42491)" stroke="#1F1D1D" stroke-width="0.8"/>
<g clip-path="url(#clip0_1705_28547)">
<path d="M4.05185 7.69266C4.05128 7.19936 4.33418 6.93303 4.90054 6.89369L7.08317 6.90568C7.22966 6.90551 7.32739 6.97794 7.37639 7.12298C7.60184 7.84816 7.85402 8.47417 8.13295 9.00101C8.41188 9.52785 8.77635 10.1344 9.22636 10.8206C9.26552 10.9076 9.32905 10.9511 9.41694 10.951C9.4853 10.9509 9.53897 10.917 9.57796 10.8492L9.62172 10.6896L9.63347 8.17952C9.63327 8.00542 9.59163 7.88939 9.50856 7.83145C9.42548 7.77351 9.27162 7.73016 9.04698 7.70141C8.87117 7.67259 8.78315 7.56629 8.78294 7.38251C8.7829 7.34382 8.78775 7.3148 8.79749 7.29544C9.00184 6.66649 9.58742 6.35145 10.5542 6.35034L11.3745 6.33488C11.7456 6.33445 12.0533 6.42599 12.2977 6.60949C12.542 6.79298 12.6644 7.08302 12.6649 7.4796L12.6687 10.7731C12.7371 10.8214 12.8006 10.8455 12.8592 10.8454C13.0057 10.8453 13.1325 10.7581 13.2398 10.5838C14.3123 9.09303 14.8922 8.09608 14.9795 7.593C14.9795 7.58333 14.9892 7.55913 15.0087 7.52042C15.0769 7.37525 15.189 7.24938 15.3452 7.1428C15.5013 7.03622 15.6379 6.96352 15.7551 6.92469C15.7941 6.9053 15.838 6.89558 15.8869 6.89552L18.1574 6.8929L18.3039 6.90724C18.4992 6.90702 18.6507 6.99873 18.7583 7.18239C18.7974 7.24038 18.8244 7.30322 18.8391 7.37091C18.8538 7.4386 18.8637 7.5063 18.8686 7.574C18.8736 7.64171 18.8761 7.68039 18.8761 7.69007L18.8762 7.79163C18.8083 8.18829 18.6354 8.61166 18.3576 9.06176C18.0798 9.51186 17.7264 9.99831 17.2973 10.5211C16.8682 11.0439 16.6001 11.3876 16.4928 11.5522C16.4051 11.6684 16.3613 11.7748 16.3614 11.8715C16.3615 11.9489 16.4006 12.0359 16.4789 12.1326L18.6206 14.7997C18.738 14.9544 18.7968 15.1236 18.797 15.3074C18.7972 15.5298 18.7096 15.7137 18.5339 15.859C18.3583 16.0043 18.1485 16.0867 17.9043 16.1064L17.6553 16.1212L15.4288 16.1237C15.419 16.1237 15.3995 16.1262 15.3702 16.1311C15.3409 16.1359 15.3214 16.1384 15.3116 16.1384C15.0968 16.1386 14.8965 16.047 14.7107 15.8634C14.6422 15.7861 14.1826 15.2159 13.3318 14.1529C13.2829 14.0853 13.2144 14.0225 13.1265 13.9646C13.0876 14.1194 13.0366 14.3419 12.9734 14.6321C12.9103 14.9224 12.8641 15.1304 12.835 15.2562L12.7913 15.5029C12.6941 15.8415 12.4892 16.0449 12.1768 16.113L11.9717 16.1277L10.5362 16.1294C9.72565 16.1303 8.91712 15.7637 8.11061 15.0295C7.3041 14.2953 6.5779 13.3458 5.93203 12.181C5.28615 11.0162 4.684 9.66031 4.12558 8.11333C4.0766 7.98765 4.05203 7.84742 4.05185 7.69266ZM12.8599 11.4403C12.6548 11.4406 12.4692 11.3851 12.3031 11.2741C12.1369 11.1631 12.0537 11.0108 12.0535 10.8174L12.0497 7.48031C12.0494 7.28686 12.0004 7.14908 11.9027 7.06697C11.8049 6.98487 11.634 6.94396 11.3899 6.94424L10.5549 6.97422C10.135 6.9747 9.81771 7.04761 9.60304 7.19295C10.033 7.39558 10.2482 7.7242 10.2487 8.17881L10.2517 10.7324C10.2324 10.9742 10.135 11.175 9.95938 11.3348C9.78378 11.4946 9.58856 11.5747 9.37372 11.5749C9.08075 11.5753 8.85598 11.4353 8.6994 11.1549C7.93637 10.0144 7.36871 8.93177 6.99644 7.9069L6.86416 7.52982L4.91591 7.51756C4.78895 7.5177 4.71816 7.52504 4.70353 7.53956C4.6889 7.55409 4.68162 7.59521 4.6817 7.66292C4.6818 7.74997 4.69167 7.84185 4.71131 7.93855L5.01987 8.7507C5.8426 10.8487 6.73562 12.5017 7.69893 13.7097C8.66224 14.9176 9.60776 15.5211 10.5355 15.52L12.0003 15.5183C12.0589 15.5182 12.1029 15.5013 12.1321 15.4674C12.1614 15.4335 12.1857 15.3682 12.2051 15.2714L12.2343 15.1263L12.5111 13.8492C12.589 13.675 12.6573 13.5589 12.7158 13.5007C12.8231 13.3942 12.95 13.3409 13.0965 13.3407C13.3308 13.3404 13.5703 13.4804 13.8147 13.7606L15.0616 15.3262C15.1399 15.4518 15.223 15.5146 15.3109 15.5145L17.7279 15.5117C18.0208 15.5114 18.1672 15.4387 18.1671 15.2936C18.167 15.2452 18.1523 15.1969 18.123 15.1485L15.9959 12.5249C15.8297 12.3219 15.7464 12.1044 15.7461 11.8723C15.7459 11.6401 15.8237 11.4175 15.9797 11.2046C16.1065 11.011 16.3527 10.6891 16.7184 10.2389C17.0841 9.78868 17.4034 9.36755 17.6764 8.97549C17.9494 8.58344 18.1296 8.22776 18.2171 7.90846L18.2609 7.71979C18.2511 7.70046 18.2462 7.66903 18.2461 7.6255C18.2461 7.58198 18.2411 7.54571 18.2313 7.5167L15.9315 7.51936C15.7851 7.57756 15.668 7.66475 15.5803 7.78092L15.4927 8.05669C15.2493 8.72439 14.6109 9.75526 13.5773 11.1493C13.3725 11.343 13.1333 11.44 12.8599 11.4403Z" fill="#1F1D1D"/>
</g>
<defs>
<clipPath id="clip0_1705_28547">
<rect width="15" height="13" fill="white" transform="translate(4.00586 5.02307) rotate(-0.0660991)"/>
</clipPath>
</defs>
</svg>
