<svg width="24" height="24" viewBox="0 0 24 24" fill="none" xmlns="http://www.w3.org/2000/svg">
<path d="M1.66001 9.08991C1.93151 6.94474 3.81309 5.4 6.00996 5.4H17.99C20.1869 5.4 22.0685 6.94474 22.34 9.08991C22.4876 10.2559 22.6 11.481 22.6 12.5C22.6 13.519 22.4876 14.7441 22.34 15.9101C22.0685 18.0553 20.1869 19.6 17.99 19.6H6.00995C3.81309 19.6 1.93151 18.0553 1.66001 15.9101C1.51244 14.7441 1.4 13.519 1.4 12.5C1.4 11.481 1.51244 10.2559 1.66001 9.08991Z" stroke="#1F1D1D" stroke-width="0.8"/>
<path d="M15 12L11 9V15L15 12Z" stroke="#1F1D1D" stroke-width="0.8" stroke-linecap="round" stroke-linejoin="round"/>
</svg>
